<?xml version="1.0" encoding="utf-8"?>
<!-- Generator: Adobe Illustrator 19.0.0, SVG Export Plug-In . SVG Version: 6.00 Build 0)  -->
<svg version="1.1" xmlns="http://www.w3.org/2000/svg" xmlns:xlink="http://www.w3.org/1999/xlink" x="0px" y="0px"
	 viewBox="0 0 500 500" style="enable-background:new 0 0 500 500;" xml:space="preserve">
<style type="text/css">
	.st0{fill:#F3DFD1;}
	.st1{fill:#F8E8E0;}
	.st2{fill:#F2CF57;}
	.st3{fill:none;stroke:#000000;stroke-width:2.0807;stroke-linecap:round;stroke-linejoin:round;stroke-miterlimit:10;}
	.st4{fill:none;stroke:#000000;stroke-width:1.5269;stroke-linecap:round;stroke-linejoin:round;stroke-miterlimit:10;}
	.st5{fill:#7764FA;}
	.st6{fill:#FFFFFF;}
	.st7{fill:#BA93FB;}
	.st8{fill:none;stroke:#FBFAFF;stroke-width:1.5236;stroke-linecap:round;stroke-linejoin:round;stroke-miterlimit:10;}
	.st9{fill:none;stroke:#FBFAFF;stroke-width:1.8936;stroke-linecap:round;stroke-linejoin:round;stroke-miterlimit:10;}
	.st10{fill:#E6B99A;}
	.st11{fill:#17203D;}
	.st12{fill:#7A67FA;}
	.st13{fill:none;stroke:#323166;stroke-width:0.9546;stroke-miterlimit:10;}
	.st14{fill:#332C30;}
	.st15{fill:#D1987B;}
	.st16{fill:none;stroke:#332C30;stroke-width:0.7089;stroke-linecap:round;stroke-linejoin:round;stroke-miterlimit:10;}
	.st17{fill:#976EE5;}
	.st18{fill:none;stroke:#FFFFFF;stroke-width:0.7089;stroke-linecap:round;stroke-linejoin:round;stroke-miterlimit:10;}
	.st19{fill:#FDFCFF;}
	.st20{fill:none;stroke:#271545;stroke-width:0.9319;stroke-miterlimit:10;}
	.st21{fill:#E79CFB;}
	.st22{fill:#C88D6D;}
	.st23{fill:#A96448;}
	.st24{fill:none;stroke:#1A2328;stroke-width:0.7072;stroke-linecap:round;stroke-linejoin:round;stroke-miterlimit:10;}
	.st25{fill:#1A2328;}
	.st26{fill:none;stroke:#1A2328;stroke-width:0.6419;stroke-linecap:round;stroke-linejoin:round;stroke-miterlimit:10;}
	.st27{fill:none;stroke:#D5A992;stroke-width:1.4318;stroke-linecap:round;stroke-linejoin:round;stroke-miterlimit:10;}
</style>
<g id="BACKGROUND">
	<rect class="st0" width="500" height="500"/>
</g>
<g id="OBJECTS">
	<g>
		<g id="XMLID_2_">
			<path id="XMLID_3_" class="st1" d="M452.9,301.3c0-109.1-88.4-197.5-197.5-197.5C146.4,103.9,58,192.3,58,301.3
				c0,45.8,15.6,87.9,41.7,121.4h311.5C437.4,389.3,452.9,347.1,452.9,301.3z"/>
		</g>
		<g id="XMLID_4_">
			<g id="XMLID_5_">
				<g id="XMLID_6_">
					<g id="XMLID_7_">
						<circle class="st2" cx="241" cy="64.4" r="20.1"/>
						<g id="XMLID_8_">
							<path class="st3" d="M234.9,60c0,0-0.9-1.8-3.3-1.3c-2.3,0.5-2.5,2.6-2.5,2.6"/>
							<path class="st3" d="M249.3,56.8c0,0-0.9-1.8-3.3-1.3c-2.3,0.5-2.5,2.6-2.5,2.6"/>
						</g>
					</g>
					<path class="st3" d="M236.1,69.2c0,0,6,2.1,10.7-2.4"/>
				</g>
				<g id="XMLID_9_">
					<g id="XMLID_10_">
						<circle class="st2" cx="370.4" cy="92.2" r="14.7"/>
						<g id="XMLID_11_">
							<path class="st4" d="M368.2,87.1c0,0,0.1-1.5-1.6-2.1c-1.6-0.6-2.5,0.6-2.5,0.6"/>
							<path class="st4" d="M378.5,90.6c0,0,0.1-1.5-1.6-2.1c-1.6-0.6-2.5,0.6-2.5,0.6"/>
						</g>
					</g>
					<path class="st4" d="M365.4,93.3c0,0,2.9,3.6,7.6,2.6"/>
				</g>
				<g id="XMLID_12_">
					<g id="XMLID_13_">
						<circle class="st5" cx="451.1" cy="287" r="11.9"/>
					</g>
					<path class="st6" d="M455.1,283.9c-1-1-2.5-0.9-3.5,0l-0.6,0.6l-0.6-0.6c-1-1-2.5-0.9-3.5,0c-1,1-0.9,2.5,0,3.5l2.4,2.4
						c0,0,0,0,0,0c0.4,0.4,0.9,0.6,1.3,0.7c0.8,0.1,1.6-0.1,2.1-0.7l2.4-2.4C456.1,286.4,456.1,284.9,455.1,283.9z"/>
				</g>
				<g id="XMLID_14_">
					<g id="XMLID_15_">
						<circle class="st5" cx="45.4" cy="222.6" r="13.6"/>
					</g>
					<path class="st6" d="M50.1,219.1c-1.1-1.1-2.9-1.1-4,0l-0.7,0.7l-0.7-0.7c-1.1-1.1-2.9-1.1-4,0c-1.1,1.1-1.1,2.9,0,4l2.7,2.7
						c0,0,0,0,0,0c0.4,0.4,1,0.7,1.5,0.8c0.9,0.1,1.8-0.1,2.5-0.8l2.7-2.8C51.2,222,51.2,220.2,50.1,219.1z"/>
				</g>
				<g id="XMLID_16_">
					<g id="XMLID_17_">
						<path id="XMLID_18_" class="st7" d="M457.1,166h-25.4c-3.4,0-6.1-2.7-6.1-6.1l0,0c0-3.4,2.7-6.1,6.1-6.1h25.4
							c3.4,0,6.1,2.7,6.1,6.1l0,0C463.2,163.3,460.5,166,457.1,166z"/>
					</g>
					<g id="XMLID_19_">
						<circle class="st6" cx="437.7" cy="159.9" r="1.6"/>
						<circle class="st6" cx="444.4" cy="159.9" r="1.6"/>
						<circle class="st6" cx="451.1" cy="159.9" r="1.6"/>
					</g>
				</g>
				<g id="XMLID_20_">
					<g id="XMLID_21_">
						<path class="st7" d="M111.4,125.6H61.9c-1.1,0-2-0.9-2-2v-17.1c0-1.1,0.9-2,2-2h49.5c1.1,0,2,0.9,2,2v17.1
							C113.5,124.7,112.6,125.6,111.4,125.6z"/>
						<g id="XMLID_22_">
							<line id="XMLID_23_" class="st8" x1="69.6" y1="111.8" x2="99.8" y2="111.8"/>
							<line id="XMLID_24_" class="st8" x1="69.6" y1="117.4" x2="81.2" y2="117.4"/>
						</g>
					</g>
					<path class="st7" d="M103.1,123.3v7.4c0,0.2-0.3,0.3-0.4,0.2l-9.5-7.6H103.1z"/>
				</g>
			</g>
			<g id="XMLID_25_">
				<circle id="XMLID_26_" class="st9" cx="323.7" cy="58.2" r="4.9"/>
				<circle id="XMLID_27_" class="st9" cx="36.6" cy="345.1" r="4.9"/>
				<circle id="XMLID_28_" class="st9" cx="466.9" cy="364.4" r="4.9"/>
				<line id="XMLID_29_" class="st9" x1="113.6" y1="70.9" x2="179.5" y2="70.9"/>
				<line id="XMLID_30_" class="st9" x1="403.4" y1="125.3" x2="436.1" y2="125.3"/>
				<line id="XMLID_31_" class="st9" x1="45.3" y1="166.5" x2="67.9" y2="166.5"/>
			</g>
		</g>
	</g>
	<g>
		<g>
			<g>
				<g id="XMLID_34_">
					<polygon class="st10" points="154.8,414.5 154.9,393.7 143.6,393.2 143.4,415.5 154.3,415.5 					"/>
					<g id="XMLID_35_">
						<path class="st11" d="M142.8,411c0,0,8.9,3.7,13.1-2.1l21.7,11.2l-37.6-0.2L142.8,411z"/>
						<polygon class="st6" points="177.6,423.2 140,423 140,419.8 177.6,420 						"/>
					</g>
				</g>
				<g id="XMLID_36_">
					<polygon class="st10" points="91.7,414.5 95.7,393.7 107,393.2 103.1,415.5 92.2,415.5 					"/>
					<g id="XMLID_37_">
						<path class="st11" d="M105.1,411c0,0-8.9,3.7-13.1-2.1L70.3,420l37.6-0.2L105.1,411z"/>
						<polygon class="st6" points="70.3,423.2 107.9,423 107.9,419.8 70.3,420 						"/>
					</g>
				</g>
				<g id="XMLID_38_">
					<path class="st12" d="M159.2,259.6L159.2,259.6l-1.4,138.9l-20.2,0.9l-1.8-109.8l-3-0.1L111,399.4l-19.3-1.5
						c0,0,14.5-102.1,16.5-110.1l4.8-28.2H159.2z"/>
					<line class="st13" x1="158" y1="389" x2="137.5" y2="389.4"/>
					<line class="st13" x1="113.4" y1="389.4" x2="93.2" y2="387.6"/>
					<line class="st13" x1="123.9" y1="289.6" x2="138.7" y2="289.6"/>
				</g>
			</g>
			<g>
				<g>
					<g id="XMLID_40_">
						<path class="st10" d="M102,228.9L97,258.1c-0.6,4.3,2.5,8.3,6.8,8.8l0,0c3.9,0.4,7.6-2.1,8.4-6l6.2-28L102,228.9z"/>
						<g id="XMLID_41_">
							<path class="st6" d="M95.9,234.6l4.2-17.6c0.8-5.9,7-10.2,13-9.7l0,0c6.4,0.4,10.6,5.8,10,12.2l-2.4,17.3L95.9,234.6z"/>
						</g>
					</g>
					<g id="XMLID_42_">
						<g id="XMLID_43_">
							<path class="st10" d="M110.8,254.4L110.8,254.4c3.2,3.3,2.6,8.9-1.4,11.3l-27.5,21l-8.8-4.7l27.6-29.5
								C103.6,250.2,108.2,251.7,110.8,254.4z"/>
							<g id="XMLID_44_">
								<circle class="st10" cx="77.1" cy="286.3" r="9.1"/>
								<path class="st10" d="M68.8,290c0,0-4.2-0.2-2.9-4.8c1.3-4.6,5.5-9.9,14.3-7.4L68.8,290z"/>
							</g>
						</g>
					</g>
				</g>
				<g>
					<polygon class="st6" points="120,203.5 108.6,207.7 109.2,275 160.1,275.1 164.9,219.6 159.1,206.9 144.3,201.7 					"/>
				</g>
				<g>
					<g id="XMLID_45_">
						<path class="st10" d="M138.8,256.7L138.8,256.7c-3.1,3.5-8.6,3.1-11.2-0.7l-28.1-27.5l6-7.1l33.4,21.7
							C141.2,245.8,141.3,254,138.8,256.7z"/>
						<path class="st10" d="M95.7,214.9c0,0,1.5-4.9,6.2-4c4.7,0.9,8.7,5.5,6.9,14.5L95.7,214.9z"/>
						<g id="XMLID_46_">
							<path class="st14" d="M82.4,200.3c1.3,4.9,5.1,19.1,6.2,23.3c0.2,0.7,0.8,1.1,1.5,1.1l12.2-1.1c0.9-0.1,1.5-1,1.2-1.8
								l-6.8-23.2c-0.2-0.7-0.8-1.1-1.5-1l-11.6,1.1C82.8,198.6,82.2,199.4,82.4,200.3z"/>
						</g>
						<path class="st10" d="M97,230.7c4.9,1.4,10.4-0.4,11.7-5.2c1.4-4.9-1.5-9.9-6.3-11.3c-4.9-1.4-10.9-0.1-12.3,4.7
							C88.8,223.8,92.1,229.3,97,230.7z"/>
					</g>
					<g>
						<path class="st10" d="M140.7,222.7l-12.9,24.6c-2.5,3.6-1.6,8.5,2,10.9l0,0c3.3,2.2,7.7,1.6,10.3-1.4l15.5-22.9L140.7,222.7z"
							/>
						<g id="XMLID_48_">
							<g id="XMLID_49_">
								<g id="XMLID_50_">
									<path class="st6" d="M135.2,226.4l11.3-15.2c3.5-4.9,10.1-6.2,15.2-3.1l0,0c5.4,3.3,5.8,13.3,1.3,19.5l-6,12.8L135.2,226.4
										z"/>
								</g>
							</g>
							<line id="XMLID_51_" class="st13" x1="137.8" y1="228.1" x2="144.9" y2="214.1"/>
							<polyline id="XMLID_52_" class="st13" points="153,237.9 156.8,240.4 162.3,230.6 							"/>
						</g>
					</g>
				</g>
			</g>
			<g>
				<path class="st10" d="M126.3,189.2l-0.5,12c-0.2,4.2,2.3,6.6,6.3,6.7l0,0c3.4,0.1,7.3-1.4,7.3-5.1l-0.1-19L126.3,189.2z"/>
				<polygon id="XMLID_39_" class="st15" points="125.9,199.6 137.8,191.8 126.2,190.9 				"/>
				<path class="st15" d="M123.4,177.9c0.1,2.8-2,5.1-4.7,5.2c-2.7,0.1-4.9-2.1-5-4.9c-0.1-2.8,2-5.1,4.7-5.2
					C121.1,172.9,123.4,175.1,123.4,177.9z"/>
				<path class="st10" d="M129.7,192.9L129.7,192.9c-6.9-0.3-12.3-6.1-12.3-11.9l0.1-12.1c0-7.3,5.6-13.2,12.7-13.4l0,0
					c7.2-0.2,14.5,5.6,14.7,13l-0.2,9.5C144.5,186.4,138,192.6,129.7,192.9z"/>
				<g id="XMLID_47_">
					<path class="st10" d="M150.6,177.9c0.1,2.8-2,5.1-4.7,5.1c-2.7,0.1-4.9-2.1-5-4.8c-0.1-2.8,2-5.1,4.7-5.1
						C148.3,173,150.5,175.2,150.6,177.9z"/>
					<path class="st16" d="M143.7,179.3c0,0,1.5-4,4.8-3.2"/>
				</g>
				<path id="XMLID_53_" class="st14" d="M117.5,178.5c0,0,0.1,4.3,2.5,5c2.4,0.7,3.3-0.5,6.5-0.7c3.6-0.3,5.4,0.3,9.3,2.2
					c3.2,1.5,7-8.4,8.3-11c0.3-0.5,0.8-0.1,0.8-0.1l-0.8,8.4c0,0-1.5,12-15.1,11.6C115.2,193.5,117.5,178.5,117.5,178.5z"/>
				<g id="XMLID_54_">
					<path id="XMLID_55_" class="st7" d="M117.4,166.5h27.8v-1.1c0-7.3-6.2-13.2-13.9-13.2l0,0c-7.7,0-13.9,5.9-13.9,13.2V166.5z"/>
					<path id="XMLID_56_" class="st17" d="M145.2,165.7c0,0-15.2-8.3-29.7-6.4c-14.6,1.9,2.1,7.3,2.1,7.3h27.7V165.7z"/>
				</g>
				<polygon id="XMLID_57_" class="st14" points="145.2,166.5 144.8,173.8 144.2,176.3 142.2,166.5 				"/>
				<polygon id="XMLID_58_" class="st14" points="117.5,173 117.4,166.5 118.7,166.5 				"/>
				<g id="XMLID_59_">
					<polyline class="st16" points="126.4,178.6 126.2,181.3 128.6,181.3 					"/>
					
						<ellipse transform="matrix(1 6.385458e-003 -6.385458e-003 1 1.1304 -0.7768)" class="st14" cx="122.2" cy="176.6" rx="1.2" ry="1.2"/>
					
						<ellipse transform="matrix(1 6.427744e-003 -6.427744e-003 1 1.1385 -0.8546)" class="st14" cx="133.5" cy="176.7" rx="1.2" ry="1.2"/>
					<path class="st14" d="M124.8,171.4c0,0,0.2,1.2-1.4,1.2c-1.2,0-2-0.1-2.7,0.1c-0.4,0.1-0.8-0.1-1-0.5l0,0
						c-0.1-0.3-0.1-0.6,0.1-0.8c0.5-0.4,1.4-1.1,2.8-1.1C124.6,170.3,124.8,171.4,124.8,171.4z"/>
					<path class="st14" d="M131.4,171.4c0,0-0.2,1.2,1.5,1.1c1.3,0,2.1-0.1,2.9,0.1c0.4,0.1,0.9-0.1,1.1-0.5l0,0
						c0.1-0.3,0.1-0.6-0.1-0.8c-0.5-0.4-1.5-1.1-3.1-1C131.6,170.3,131.4,171.4,131.4,171.4z"/>
					<path id="XMLID_60_" class="st18" d="M125.2,185.2c0,0,2.5,1.6,5.7-0.4"/>
				</g>
				<path id="XMLID_61_" class="st10" d="M128.6,200.4l-8.6,3.1c0,0-2.9,6.5,10.4,6.5c13.8,0,13.8-8.3,13.8-8.3l-8.4-3L128.6,200.4z
					"/>
			</g>
		</g>
		<g>
			<g>
				<path class="st5" d="M201.1,423.2h111.1c14.2,0,25.7-11.5,25.7-25.7v-233c0-14.2-11.5-25.7-25.7-25.7H201.1
					c-14.2,0-25.7,11.5-25.7,25.7v233C175.5,411.7,187,423.2,201.1,423.2z"/>
				<path class="st19" d="M201,415.4h111.4c9.8,0,17.7-7.9,17.7-17.7V165.9c0-9.8-7.9-17.7-17.7-17.7H201c-9.8,0-17.7,7.9-17.7,17.7
					v231.8C183.3,407.5,191.2,415.4,201,415.4z"/>
				<path class="st5" d="M229.5,156.9h53.3c2.6,0,4.8-2.1,4.8-4.8v-7.8h-62.8v7.8C224.7,154.8,226.8,156.9,229.5,156.9z"/>
			</g>
			<g>
				<g id="XMLID_62_">
					<g id="XMLID_63_">
						<path class="st7" d="M303.4,230.6H203.2c-3.4,0-6.1-2.7-6.1-6.1v-30.1c0-3.4,2.7-6.1,6.1-6.1h100.2c3.4,0,6.1,2.7,6.1,6.1
							v30.1C309.5,227.9,306.8,230.6,303.4,230.6z"/>
						<polygon id="XMLID_64_" class="st7" points="287.2,221.9 287.2,237.5 303.7,221.7 						"/>
					</g>
					<g id="XMLID_65_">
						<line id="XMLID_66_" class="st20" x1="211.7" y1="202.1" x2="291.4" y2="202.1"/>
						<line id="XMLID_67_" class="st20" x1="211.7" y1="210.1" x2="291.4" y2="210.1"/>
						<line id="XMLID_68_" class="st20" x1="211.7" y1="218" x2="238" y2="218"/>
					</g>
				</g>
				<g id="XMLID_69_">
					<g id="XMLID_70_">
						<path class="st7" d="M303.4,361.4H203.2c-3.4,0-6.1-2.7-6.1-6.1v-30.1c0-3.4,2.7-6.1,6.1-6.1h100.2c3.4,0,6.1,2.7,6.1,6.1
							v30.1C309.5,358.7,306.8,361.4,303.4,361.4z"/>
						<polygon id="XMLID_71_" class="st7" points="287.2,352.7 287.2,368.3 303.7,352.5 						"/>
					</g>
					<g id="XMLID_72_">
						<line id="XMLID_73_" class="st20" x1="211.7" y1="333" x2="291.4" y2="333"/>
						<line id="XMLID_74_" class="st20" x1="211.7" y1="340.9" x2="291.4" y2="340.9"/>
						<line id="XMLID_75_" class="st20" x1="211.7" y1="348.8" x2="238" y2="348.8"/>
					</g>
				</g>
				<g id="XMLID_76_">
					<g id="XMLID_77_">
						<path class="st2" d="M203.2,297.1h100.2c3.4,0,6.1-2.7,6.1-6.1v-30.1c0-3.4-2.7-6.1-6.1-6.1H203.2c-3.4,0-6.1,2.7-6.1,6.1V291
							C197.1,294.4,199.9,297.1,203.2,297.1z"/>
						<polygon class="st2" points="218.4,288.5 218.4,304 201.9,288.2 						"/>
					</g>
					<g id="XMLID_78_">
						<line id="XMLID_79_" class="st20" x1="211.7" y1="267.3" x2="259.1" y2="267.3"/>
						<line id="XMLID_80_" class="st20" x1="211.7" y1="275.2" x2="291.4" y2="275.2"/>
						<line id="XMLID_81_" class="st20" x1="211.7" y1="283.1" x2="227.7" y2="283.1"/>
					</g>
				</g>
			</g>
		</g>
		<g>
			<g>
				<g id="XMLID_82_">
					<g id="XMLID_83_">
						<path class="st14" d="M402.4,416.9l6.2,3c0.7,0.3,1,1.1,0.8,1.8c-0.2,0.6-0.7,1.1-2.1,1.1c-3,0.1-16.5-2-16.5-2v1.4l-6.3-0.7
							c0,0-0.4-7.2,1.5-8.2L402.4,416.9z"/>
						<path class="st10" d="M392.4,409.7l9.9,7.2c0,0-1.1,2.7-5.8,0.9c-4.7-1.8-10.6-4.6-10.6-4.6l0.9-4.3L392.4,409.7z"/>
					</g>
					<polygon class="st10" points="386,413.2 385,386.7 394.9,387.7 393.5,412.3 					"/>
				</g>
				<g id="XMLID_84_">
					<g id="XMLID_85_">
						<path class="st14" d="M357.8,416.9l-6.2,3c-0.7,0.3-1,1.1-0.8,1.8c0.2,0.6,0.7,1.1,2.1,1.1c3,0.1,16.5-2,16.5-2v1.4l6.3-0.7
							c0,0,0.4-7.2-1.5-8.2L357.8,416.9z"/>
						<path class="st10" d="M367.7,409.7l-9.9,7.2c0,0,1.1,2.7,5.8,0.9c4.7-1.8,10.6-4.6,10.6-4.6l-0.9-4.3L367.7,409.7z"/>
					</g>
					<polygon class="st10" points="374.2,413.2 375.1,386.7 365.2,387.7 366.6,412.3 					"/>
				</g>
				<g id="XMLID_86_">
					<path class="st21" d="M392.5,252c0,0,7.6,4,9.7,22.6c2.1,18.6-3.9,125.4-3.9,125.4h-14.7l-2.1-117.4l-4,117.4h-15.2l-5-109.9
						c0,0-2-26.4,8.4-37.5L392.5,252z"/>
					<line class="st13" x1="381.4" y1="283.1" x2="388.6" y2="279.8"/>
					<line class="st13" x1="398.7" y1="393.7" x2="383.6" y2="393.7"/>
					<line class="st13" x1="377.8" y1="393.7" x2="362.1" y2="393.7"/>
				</g>
			</g>
			<g>
				<g>
					<g id="XMLID_88_">
						<path class="st22" d="M404.4,223.7l7.3,27c0.8,3.1-1.2,6.1-4.3,6.7l0,0c-2.7,0.5-6.4-2.1-7.2-4.8l-6.8-21.5L404.4,223.7z"/>
						<path class="st12" d="M396.1,209.2c0,0,7.4,0.2,11.3,12.8l2.9,13.5l-21.3,3.6L396.1,209.2z"/>
					</g>
					<g id="XMLID_89_">
						<g id="XMLID_90_">
							<path class="st22" d="M425.3,221.5l-24.8,27.1c-1.9,2.4,0.4,5.8,2.8,7.7l0,0c2.5,2,6.2,1.3,7.9-1.4l18.6-27.3L425.3,221.5z"
								/>
						</g>
						<g id="XMLID_91_">
							<path id="XMLID_92_" class="st14" d="M429.4,197.8c-0.9,5-3.4,19.5-4.1,23.7c-0.1,0.7-0.7,1.2-1.4,1.2h-12.2
								c-0.9,0-1.6-0.8-1.4-1.7l4.6-23.7c0.1-0.7,0.7-1.2,1.4-1.2H428C428.9,196.1,429.6,196.9,429.4,197.8z"/>
							<path id="XMLID_93_" class="st22" d="M423.9,235.7l7.2-9.9c0.6-0.9,1-1.9,0.9-3c-0.1-3.8-0.8-13.1-5.9-15.1
								c-6.4-2.5-9.8,3.1-6.7,8.4c3.1,5.3,3.1,7.5,3.1,7.5l-4.2,5.6L423.9,235.7z"/>
						</g>
					</g>
				</g>
				<g id="XMLID_87_">
					<path class="st12" d="M384.5,206.8l11.5,2.3c0,0,4.6,11.9,2,23.5l-5.5,19.4l-26.7,0.6l-8.7-31.6l-0.8-10L373,206L384.5,206.8z"
						/>
					<path class="st13" d="M396.6,237.8c0,0,3.2-8.6,0.5-17.5"/>
				</g>
				<g>
					<g id="XMLID_95_">
						<path class="st22" d="M365.3,225.7l-0.5,25.3c-0.2,3.2-4.3,7.8-7.4,7.3l0,0c-2.7-0.4-4.7-2.8-4.6-5.6l-0.2-23.6L365.3,225.7z"
							/>
						<g id="XMLID_96_">
							<path class="st12" d="M356.3,211c0,0-6.3,1.7-6.2,11.6l-1.6,17.5l17.4-1.8l2.9-18.5L356.3,211z"/>
							<line class="st13" x1="365.9" y1="238.3" x2="366.8" y2="225.7"/>
						</g>
					</g>
					<g id="XMLID_97_">
						<g id="XMLID_98_">
							<path class="st22" d="M388.9,225.8l-32.3,18.6l4.4,12.7c0,0,17.1-13.5,31.9-26.4L388.9,225.8z"/>
						</g>
						<g id="XMLID_99_">
							<circle class="st22" cx="394.2" cy="225.8" r="7.4"/>
							<path id="XMLID_100_" class="st22" d="M391.9,218.6l11-4c0.5-0.2,1,0,1.3,0.5l0,0c0.3,0.5,0.2,1.2-0.3,1.5l-8.2,5.5
								L391.9,218.6z"/>
						</g>
					</g>
				</g>
			</g>
			<g>
				<path id="XMLID_94_" class="st14" d="M392.8,175.6c0,9.3-7.9,18.8-17.5,18.8c-9.7,0-16.6-9.5-16.6-18.8
					c0-9.3,6.9-15.9,16.6-15.9C384.9,159.7,392.8,166.3,392.8,175.6z"/>
				<g id="XMLID_101_">
					<g id="XMLID_102_">
						<circle class="st23" cx="389.9" cy="184.4" r="4.5"/>
					</g>
				</g>
				<polygon class="st22" points="383.1,194.4 384.5,208.4 371.8,207.8 372.7,194.4 				"/>
				<path class="st23" d="M384,203.2l-10.3-6.6c-0.5-0.3,2.1-2.7,2.7-2.7l6.9,2.4L384,203.2z"/>
				<path class="st22" d="M379.9,198.5L379.9,198.5c6.4-0.2,11.4-5.4,11.4-10.6l-0.1-12.3c0-6.5-5.2-11.9-11.7-12.1l0,0
					c-6.7-0.2-13.4,5-13.6,11.6l0.2,9.9C366.2,192.7,372.3,198.2,379.9,198.5z"/>
				<g id="XMLID_103_">
					<polyline class="st24" points="384.4,187 384.8,189.6 383.2,189.7 					"/>
					<circle class="st25" cx="387.6" cy="184.6" r="1.1"/>
					<circle class="st25" cx="377.9" cy="184.6" r="1.1"/>
					<path class="st14" d="M374.1,181.1c0,0,0,1,1.9,0.5c1.4-0.4,2.3-0.6,3.1-0.7c0.5-0.1,0.9-0.3,1-0.6l0,0
						c0.1-0.2-0.1-0.6-0.4-0.7c-0.6-0.2-1.8-0.3-3.5,0.1C374,180.2,374.1,181.1,374.1,181.1z"/>
					<path class="st14" d="M389.9,180.4c0,0-0.1,0.9-1.5,0.6c-1-0.2-1.6-0.4-2.3-0.4c-0.4,0-0.7-0.2-0.7-0.5l0,0
						c0-0.2,0.1-0.4,0.3-0.6c0.5-0.2,1.4-0.5,2.7-0.3C390,179.6,389.9,180.4,389.9,180.4z"/>
					<path id="XMLID_104_" class="st19" d="M385.2,191.5h-6.5c0,0,0.7,1.9,3.7,1.8C385.5,193.1,385.2,191.5,385.2,191.5z"/>
				</g>
				<path class="st14" d="M374.7,170.7c0,0-2.4,5.3-5.6,7.9l-0.4,5.3l-7.1-5.6l1.3-6.8L374.7,170.7z"/>
				<g id="XMLID_105_">
					<g id="XMLID_106_">
						<circle class="st22" cx="364.7" cy="185.3" r="4.5"/>
					</g>
					<g id="XMLID_107_">
						<path class="st26" d="M366.7,186.1c0,0-0.6-3.4-4-1.9"/>
					</g>
				</g>
				<polygon class="st22" points="368.6,207.3 383.2,215.8 386.5,207.2 382.5,206.3 373.4,205.9 				"/>
				<path id="XMLID_108_" class="st14" d="M389.9,168.8c0,0-9.1,13.1-24.4,9.2l-2.8-6.4C362.8,171.6,377.9,155.3,389.9,168.8z"/>
				<path id="XMLID_109_" class="st14" d="M384,168.9c0,0,5.5,1.6,7.2,8.5c0,0,1.7-12.8-11.8-14.3L384,168.9z"/>
				<path class="st14" d="M362.5,166.8C362.5,166.8,363.3,166.5,362.5,166.8c-8.3,3.3-10.9-1.4-9.4-5.6c0.2-0.6,0.5-1.2,1-1.8
					c0,0-5.7-1.9-4.2-6.5c0,0,1-3.6,6.3-1.6c0,0-1.1-3,1.2-5.1c1.3-1.2,3.2-1.5,4.8-0.9c1.1,0.4,2.4,1.3,3.6,3c0,0,2.8-2.6,4.9,0.2
					c1.8,2.3-0.3,5.5-0.3,5.5s3.5-1.3,4.5,0.8c1,2.1-0.4,4.9-5.2,7.9C365.2,165.7,362.5,166.8,362.5,166.8z"/>
			</g>
		</g>
		<line class="st27" x1="39" y1="423.2" x2="462" y2="423.2"/>
	</g>
</g>
<g id="DESIGNED_BY_FREEPIK">
</g>
</svg>
